<svg xmlns="http://www.w3.org/2000/svg" width="40" height="40" viewBox="0 0 1000 1000" preserveAspectRatio="xMidYMid meet">
<circle fill="#222" cx="500" cy="500" r="500" />
<g transform="translate(50,1050) scale(0.09,-0.13)" fill="#fff" stroke="none">
<path d="M2360 7192 c-129 -72 -215 -132 -345 -238 -148 -120 -359 -344 -455
-480 -283 -401 -428 -709 -607 -1289 -38 -125 -165 -328 -183 -294 -4 8 -16
75 -25 149 -14 109 -16 189 -12 425 4 293 18 439 66 725 10 58 16 107 14 110
-11 11 -171 -173 -216 -248 -124 -206 -161 -380 -160 -747 0 -185 5 -255 22
-356 31 -191 57 -311 96 -454 19 -71 62 -233 95 -360 33 -126 67 -252 74 -280
18 -63 64 -239 111 -420 20 -77 49 -190 65 -250 37 -144 57 -282 42 -297 -22
-22 -87 25 -213 156 -281 292 -335 363 -456 601 -58 115 -78 151 -133 239
l-24 40 -9 -40 c-9 -44 4 -202 28 -321 66 -327 243 -649 499 -904 155 -155
342 -293 566 -418 103 -57 699 -352 1070 -528 464 -222 862 -426 935 -480 163
-121 263 -232 356 -395 24 -43 51 -81 59 -85 8 -4 189 -9 403 -11 l387 -4 0
29 c-1 81 -69 265 -131 354 -70 100 -359 397 -734 756 -236 226 -308 332 -362
531 -45 171 -32 390 37 612 35 112 42 151 29 166 -6 8 -17 14 -23 14 -6 0 -54
-42 -105 -92 -141 -139 -169 -208 -276 -668 -57 -243 -57 -243 -176 -241 -224
4 -426 63 -621 183 -80 49 -131 91 -229 188 -173 173 -216 264 -190 404 14 75
125 296 204 406 80 112 168 230 189 255 24 29 364 476 388 512 8 11 35 50 60
85 52 72 142 226 220 373 29 55 57 105 61 111 5 6 12 45 15 88 7 74 6 76 -16
76 -26 0 -99 -71 -175 -170 -176 -232 -398 -460 -447 -460 -26 0 -47 34 -65
105 -28 112 -25 470 6 630 58 309 168 598 344 907 30 53 53 99 50 102 -8 8
-71 -21 -131 -60 -68 -46 -188 -163 -239 -234 -121 -169 -158 -274 -294 -835
-225 -928 -300 -1205 -343 -1278 -29 -48 -91 -96 -124 -97 -17 0 -52 83 -63
150 -39 253 -52 415 -53 670 0 327 20 504 90 775 42 165 134 439 187 557 9 18
32 71 53 118 77 176 189 388 317 600 107 179 317 471 537 749 129 162 123 174
-40 83z"/>
<path d="M7502 7213 c12 -28 146 -243 157 -253 3 -3 15 -18 27 -35 11 -16 38
-55 59 -85 68 -96 281 -415 353 -527 326 -507 525 -1046 604 -1633 16 -126 17
-674 0 -795 -7 -49 -24 -156 -40 -237 -20 -113 -31 -148 -42 -148 -38 0 -171
144 -197 215 -29 75 -121 489 -152 680 -12 72 -30 184 -41 250 -95 570 -253
917 -554 1208 -84 82 -195 171 -202 164 -4 -4 112 -266 136 -309 9 -16 34 -74
87 -203 39 -96 109 -311 138 -425 57 -227 92 -592 66 -687 -24 -86 -85 -127
-156 -103 -41 14 -129 108 -310 335 -164 204 -237 280 -260 272 -37 -15 -9
-94 123 -342 83 -157 118 -219 175 -308 116 -183 409 -613 684 -1007 29 -41
72 -106 95 -145 42 -68 43 -71 43 -160 0 -81 -3 -97 -33 -159 -48 -100 -100
-172 -178 -246 -160 -153 -311 -236 -539 -297 -149 -40 -355 -64 -400 -47 -27
11 -43 55 -50 139 -10 125 -35 293 -55 370 -49 191 -156 358 -295 460 -22 17
-43 34 -47 40 -18 24 -19 -13 -4 -132 9 -70 28 -193 43 -273 76 -431 -12 -670
-352 -945 -73 -59 -161 -133 -179 -150 -6 -6 -60 -51 -121 -100 -300 -245
-455 -446 -534 -694 -27 -82 -26 -105 1 -131 21 -19 33 -20 391 -20 l369 0 19
22 c10 13 35 52 55 88 95 168 131 202 414 392 230 154 261 170 1185 634 358
180 684 345 725 367 41 22 82 44 90 48 162 84 352 223 502 368 164 157 254
275 359 466 124 225 223 538 236 752 5 71 3 83 -11 89 -33 13 -91 -74 -207
-306 -93 -189 -192 -367 -230 -414 -107 -134 -235 -262 -294 -293 -43 -23
-128 -44 -138 -34 -5 5 -9 44 -9 87 -1 85 49 325 117 564 20 69 44 156 55 195
10 38 43 158 74 265 86 300 93 326 126 460 168 684 170 1086 9 1453 -64 145
-234 388 -260 371 -13 -8 -11 -79 6 -156 50 -238 75 -492 75 -768 0 -334 -23
-495 -70 -495 -16 0 -103 149 -130 225 -11 30 -25 64 -30 75 -6 11 -21 52 -34
90 -133 383 -282 721 -409 930 -228 374 -471 640 -797 871 -97 70 -221 144
-238 144 -9 0 -9 -7 0 -27z"/>
</g>
</svg>
